<svg xmlns="http://www.w3.org/2000/svg" width="220" height="220"><path d="m121.258 2.797 2.077.912c2.27 1 4.53 2.02 6.79 3.041 1.605.711 3.21 1.421 4.817 2.13a3542.51 3542.51 0 0 1 10.416 4.62c5.984 2.658 11.987 5.27 17.994 7.875l3.13 1.357 6.208 2.691a12499.973 12499.973 0 0 1 17.222 7.483l2.43 1.058 2.078.903c3.866 1.698 7.723 3.416 11.58 5.133.094 16.812.164 33.623.207 50.435.02 7.807.049 15.613.095 23.42.04 6.806.065 13.612.074 20.418.006 3.602.018 7.204.047 10.806.032 4.026.033 8.052.031 12.08l.044 3.596c-.04 8.003-1.251 13.148-6.312 19.535-6.742 6.103-14.38 9.236-22.686 12.585-2.303.952-4.602 1.911-6.902 2.87-1.622.676-3.244 1.35-4.867 2.022-10.147 4.208-20.184 8.667-30.231 13.108a9812.51 9812.51 0 0 1-8.01 3.534c-1.598.704-3.196 1.41-4.793 2.116-7.142 3.148-12.702 4.762-20.272 2.324a171.018 171.018 0 0 1-3.683-1.646l-2.077-.912c-2.27-1-4.53-2.02-6.79-3.041-1.605-.711-3.21-1.421-4.817-2.13a3542.51 3542.51 0 0 1-10.416-4.62 2196.452 2196.452 0 0 0-17.994-7.875l-3.13-1.357-6.208-2.691c-4.892-2.121-9.78-4.247-14.67-6.374l-2.552-1.11-2.43-1.057-2.078-.903c-3.866-1.698-7.723-3.416-11.58-5.133-.094-16.812-.164-33.623-.207-50.435a7246.47 7246.47 0 0 0-.095-23.42c-.04-6.806-.065-13.612-.074-20.418-.006-3.602-.018-7.204-.047-10.806-.032-4.026-.033-8.052-.031-12.08l-.044-3.596c.04-8.003 1.251-13.148 6.312-19.535 6.742-6.103 14.38-9.236 22.686-12.585 2.303-.952 4.602-1.911 6.902-2.87 1.622-.676 3.244-1.35 4.867-2.022C64.416 18.025 74.453 13.566 84.5 9.125l8.01-3.534c1.598-.704 3.196-1.41 4.793-2.116 8.855-3.903 15.068-4.771 23.955-.678z" fill="#5C67F5"/><path d="M121.066 55.344 123 56.687c3.987 2.68 7.432 2.769 12.14 3.036 10.98 1.065 18.651 6.98 25.524 15.289 2.5 3.604 3.54 6.592 4.149 10.925.853 5.411 3.474 8.054 7.21 11.899 3.53 3.864 5.79 7.927 6.227 13.164l-.25 2c-9.979-1.679-21.043-6.79-29-13-2.726-4.371-1.588-9.113-1-14-1.384-4.048-4.395-6.79-8-9-2.754-.918-4.41-1.135-7.25-1.125l-2.41-.004c-2.595.068-2.595.068-6.028 1.067C121 77 121 77 119.552 75.647a457.82 457.82 0 0 1-2.91-3.789c-3.63-4.113-8.28-5.557-13.606-6.238C96.52 65.366 91.313 66.064 86 70c-4.307 4.307-6.806 9.336-7.25 15.438.273 3.888.708 7.702 1.25 11.562l-1.828.55C73.898 98.896 70.476 100.08 67 103h-2l-.867 1.781C63 107 63 107 61.93 108.72 58.427 114.634 58.127 120.25 59 127c1.582 5.912 4.942 9.428 9.938 12.816 6.184 3.55 13.104 3.706 20.062 4.184-4.444 5.205-11.874 6.705-18.434 7.324-9.084.137-16.784-.915-23.566-7.324-7.108-8.543-8.988-17.035-8-28 2.046-10.505 9.144-20.31 17.93-26.32C61.446 87 61.446 87 64 87l.043-2.055C64.55 75.045 67.923 67.076 75 60c13.612-10.927 30.403-14.842 46.066-4.656z" fill="#FCFCFE"/><path d="m144.305 111.71 2.317 1.119c1.604.777 3.205 1.558 4.805 2.345a866.391 866.391 0 0 0 7.386 3.568l4.68 2.281 2.237 1.07c1.796.893 3.54 1.892 5.27 2.907l1 3-3.165 1.529c-3.876 1.872-7.75 3.748-11.624 5.624l-5.031 2.433a5707.557 5707.557 0 0 0-7.23 3.5l-2.274 1.095c-3.027 1.47-5.872 2.95-8.676 4.819-4.888-.289-9.222-2.846-13.547-4.965l-2.46-1.192c-1.71-.83-3.417-1.663-5.123-2.499-2.62-1.282-5.247-2.55-7.874-3.819l-4.98-2.427-2.39-1.153C92.115 128.23 92.115 128.23 91 126a2068.27 2068.27 0 0 1 15.85-8.173 833.95 833.95 0 0 0 5.387-2.785 812.713 812.713 0 0 1 7.767-3.983l2.41-1.275c8.279-4.144 13.984-1.962 21.89 1.927z" fill="#FDFDFE"/><path d="M117.996 151.918a354.537 354.537 0 0 1 6.678 3.463c4.492 2.267 4.492 2.267 9.424 2.088 3.935-1.992 7.85-3.999 11.691-6.166 4.215-2.233 6.654-2.688 11.211-1.303a110.784 110.784 0 0 1 7.313 3.375l1.916.922c4.647 2.331 4.647 2.331 5.771 5.703l-3.181 1.545a254025.373 254025.373 0 0 0-23.967 11.639l-2.29 1.11c-3.788 1.839-3.788 1.839-7.562 3.706-5.553.613-9.105-1.154-13.883-3.648l-2.232-1.13a1072.252 1072.252 0 0 1-7.01-3.597c-1.576-.803-3.153-1.605-4.73-2.406-2.892-1.47-5.78-2.947-8.665-4.431A584.106 584.106 0 0 0 91 159c1.76-3.52 5.803-4.555 9.25-6.188l2.316-1.154c6.301-2.998 9.202-2.79 15.43.26z" fill="#FCFCFE"/></svg>